<svg width="469" height="60" viewBox="0 0 469 60" fill="none" xmlns="http://www.w3.org/2000/svg">
<path d="M41.65 37.6984C41.65 41.3228 41.0142 44.4974 39.7424 47.2222C38.4971 49.9206 36.775 52.1693 34.5759 53.9683C32.4033 55.7672 29.8465 57.1164 26.9056 58.0159C23.9912 58.9153 20.8515 59.3651 17.4867 59.3651C16.1884 59.3651 14.7577 59.1931 13.1945 58.8492C11.6578 58.5053 10.0946 58.082 8.50487 57.5794C6.91518 57.0503 5.37847 56.4947 3.89475 55.9127C2.43753 55.3042 1.13928 54.7355 0 54.2064L1.74867 37.8571C4.00073 39.2064 6.49126 40.2381 9.22024 40.9524C11.9757 41.6402 14.6782 41.9841 17.3277 41.9841C17.8311 41.9841 18.4405 41.9709 19.1558 41.9444C19.8712 41.8915 20.5468 41.7725 21.1827 41.5873C21.8451 41.3757 22.4015 41.0714 22.8519 40.6746C23.3023 40.2778 23.5275 39.709 23.5275 38.9683C23.5275 38.4656 23.3685 38.0423 23.0506 37.6984C22.7327 37.328 22.322 37.037 21.8186 36.8254C21.3152 36.5873 20.7455 36.4153 20.1097 36.3095C19.4738 36.1772 18.8511 36.0847 18.2418 36.0317C17.6324 35.9788 17.0627 35.9524 16.5328 35.9524C16.0029 35.9524 15.579 35.9524 15.2611 35.9524C12.9825 35.9524 10.9027 35.5556 9.02152 34.7619C7.16688 33.9683 5.56394 32.8704 4.21269 31.4683C2.88795 30.0397 1.85465 28.3598 1.11279 26.4286C0.370929 24.4709 0 22.3545 0 20.0794C0 16.9577 0.622631 14.1667 1.86789 11.7063C3.13965 9.21958 4.82208 7.1164 6.91518 5.39683C9.03477 3.65079 11.4591 2.31481 14.188 1.38889C16.917 0.462963 19.7387 0 22.6532 0C23.9514 0 25.2894 0.0529101 26.6671 0.15873C28.0449 0.238095 29.4094 0.396825 30.7606 0.634921C32.1384 0.873016 33.4763 1.17725 34.7746 1.54762C36.0728 1.91799 37.3049 2.38095 38.4706 2.93651L36.9604 19.0476C35.1588 18.4392 33.2644 17.9365 31.2773 17.5397C29.3166 17.1164 27.3958 16.9048 25.5146 16.9048C25.1702 16.9048 24.7198 16.918 24.1634 16.9444C23.6335 16.9444 23.0638 16.9841 22.4545 17.0635C21.8716 17.1164 21.2754 17.209 20.666 17.3413C20.0567 17.4735 19.5135 17.6587 19.0366 17.8968C18.5597 18.1085 18.1755 18.3995 17.8841 18.7698C17.5926 19.1402 17.4602 19.5767 17.4867 20.0794C17.5131 20.6614 17.7251 21.1376 18.1225 21.5079C18.5465 21.8519 19.0764 22.1296 19.7122 22.3413C20.3746 22.5265 21.09 22.6587 21.8583 22.7381C22.6532 22.8175 23.4348 22.8704 24.2031 22.8968C24.9715 22.8968 25.6868 22.8968 26.3492 22.8968C27.0116 22.8704 27.5547 22.8836 27.9786 22.9365C30.0982 23.0688 32.0059 23.5185 33.7016 24.2857C35.3972 25.0529 36.828 26.0714 37.9937 27.3413C39.186 28.6111 40.0868 30.1323 40.6962 31.9048C41.3321 33.6508 41.65 35.582 41.65 37.6984Z" fill="#FCF3F3"/>
<path d="M85.3269 2.85714L84.9295 19.6825L73.0863 20.1587L71.6555 56.9841L54.8842 57.8571L53.374 21.0317L41.5308 21.6667L42.0077 2.93651L85.3269 2.85714Z" fill="#FCF3F3"/>
<path d="M135.919 28.4127C135.919 30.8201 135.641 33.1482 135.084 35.3968C134.528 37.619 133.72 39.709 132.66 41.6667C131.627 43.6243 130.355 45.4233 128.845 47.0635C127.361 48.6773 125.679 50.0661 123.798 51.2302C121.943 52.3942 119.916 53.3069 117.717 53.9683C115.518 54.6032 113.186 54.9206 110.722 54.9206C108.338 54.9206 106.059 54.6164 103.887 54.0079C101.741 53.3995 99.7269 52.5529 97.8458 51.4683C95.9646 50.3571 94.2557 49.0344 92.719 47.5C91.2088 45.9392 89.9105 44.2196 88.8243 42.3413C87.7645 40.4365 86.9299 38.3995 86.3205 36.2302C85.7376 34.0608 85.4462 31.7989 85.4462 29.4444C85.4462 27.1429 85.7243 24.8942 86.2807 22.6984C86.8371 20.4762 87.632 18.3862 88.6653 16.4286C89.7251 14.4709 90.9968 12.672 92.4806 11.0317C93.9643 9.39153 95.6202 7.97619 97.4484 6.78571C99.303 5.59524 101.303 4.66931 103.449 4.00794C105.596 3.34656 107.861 3.01587 110.245 3.01587C114.087 3.01587 117.585 3.61111 120.737 4.80159C123.917 5.99206 126.619 7.69841 128.845 9.92064C131.097 12.1164 132.832 14.7884 134.051 17.9365C135.296 21.0582 135.919 24.5503 135.919 28.4127ZM118.273 29.4444C118.273 28.3069 118.101 27.209 117.757 26.1508C117.439 25.0661 116.962 24.1138 116.326 23.2937C115.69 22.4471 114.895 21.7725 113.941 21.2698C113.014 20.7407 111.941 20.4762 110.722 20.4762C109.477 20.4762 108.364 20.7011 107.384 21.1508C106.404 21.6005 105.556 22.2222 104.84 23.0159C104.152 23.7831 103.622 24.6958 103.251 25.754C102.88 26.7857 102.694 27.8836 102.694 29.0476C102.694 30.1587 102.853 31.2698 103.171 32.381C103.489 33.4921 103.966 34.4974 104.602 35.3968C105.238 36.2963 106.019 37.0238 106.947 37.5794C107.901 38.1349 109 38.4127 110.245 38.4127C111.491 38.4127 112.603 38.1746 113.584 37.6984C114.591 37.1958 115.438 36.5344 116.127 35.7143C116.816 34.8677 117.346 33.9021 117.717 32.8175C118.088 31.7328 118.273 30.6085 118.273 29.4444Z" fill="#FCF3F3"/>
<path d="M185.279 20.5556C185.279 22.619 185.094 24.4974 184.723 26.1905C184.378 27.8571 183.822 29.3915 183.053 30.7937C182.285 32.1958 181.292 33.4921 180.073 34.6825C178.854 35.873 177.384 37.0106 175.661 38.0952L185.12 54.9206L167.236 58.4127L161.116 41.5079L156.188 41.6667L155.472 58.1746H138.383C138.515 52.1429 138.635 46.1376 138.741 40.1587C138.873 34.1799 139.019 28.1746 139.178 22.1429C139.231 19.1005 139.284 16.0847 139.337 13.0952C139.39 10.1058 139.496 7.08995 139.655 4.04762C141.509 3.35979 143.338 2.79101 145.139 2.34127C146.941 1.89153 148.743 1.54762 150.544 1.30952C152.372 1.04497 154.214 0.873016 156.068 0.793651C157.95 0.687831 159.87 0.634921 161.831 0.634921C164.851 0.634921 167.766 1.0582 170.574 1.90476C173.409 2.72487 175.913 3.96825 178.086 5.63492C180.258 7.30159 181.994 9.37831 183.292 11.8651C184.617 14.3519 185.279 17.2487 185.279 20.5556ZM167.474 21.8254C167.474 20.7143 167.315 19.6958 166.998 18.7698C166.706 17.8439 166.256 17.0503 165.646 16.3889C165.063 15.7011 164.322 15.172 163.421 14.8016C162.546 14.4048 161.513 14.2063 160.321 14.2063C159.791 14.2063 159.274 14.246 158.771 14.3254C158.267 14.3783 157.777 14.4709 157.3 14.6032L156.665 29.3651H157.618C158.758 29.3651 159.91 29.2196 161.076 28.9286C162.268 28.6376 163.328 28.1878 164.255 27.5794C165.209 26.9709 165.977 26.1905 166.56 25.2381C167.17 24.2857 167.474 23.1481 167.474 21.8254Z" fill="#FCF3F3"/>
<path d="M236.189 5.07937L217.51 35.5556L218.067 58.0159H197.639L198.116 35.7143L183.57 6.26984L203.839 3.73016L210.198 20.873L217.113 3.73016L236.189 5.07937Z" fill="#FCF3F3"/>
<path d="M279.826 50.7143C278.581 52.2751 277.044 53.6376 275.216 54.8016C273.388 55.9656 271.427 56.9312 269.334 57.6984C267.241 58.4656 265.095 59.0344 262.896 59.4048C260.697 59.8016 258.604 60 256.617 60C252.775 60 249.238 59.3122 246.005 57.9365C242.773 56.5609 239.978 54.6693 237.62 52.2619C235.288 49.828 233.46 46.9709 232.135 43.6905C230.811 40.4101 230.148 36.8783 230.148 33.0952C230.148 30.2116 230.479 27.3942 231.142 24.6429C231.804 21.8651 232.745 19.2593 233.963 16.8254C235.209 14.3651 236.719 12.1164 238.494 10.0794C240.269 8.01587 242.283 6.24339 244.535 4.7619C246.787 3.28042 249.251 2.12963 251.927 1.30952C254.603 0.489418 257.464 0.0793651 260.511 0.0793651C261.651 0.0793651 262.869 0.132275 264.168 0.238095C265.466 0.31746 266.751 0.47619 268.023 0.714286C269.321 0.925926 270.579 1.23016 271.798 1.62698C273.017 2.02381 274.13 2.51323 275.137 3.09524L274.024 18.254C272.54 17.6984 271.003 17.328 269.414 17.1429C267.851 16.9312 266.314 16.8254 264.804 16.8254C262.684 16.8254 260.697 17.1561 258.842 17.8175C257.014 18.4524 255.411 19.3783 254.033 20.5952C252.682 21.8122 251.609 23.2937 250.814 25.0397C250.019 26.7857 249.622 28.7566 249.622 30.9524C249.622 32.328 249.807 33.664 250.178 34.9603C250.549 36.2302 251.106 37.3677 251.848 38.373C252.616 39.3519 253.556 40.1455 254.669 40.754C255.809 41.3624 257.12 41.6667 258.604 41.6667C259.611 41.6667 260.644 41.5344 261.704 41.2698C262.79 41.0053 263.717 40.5556 264.486 39.9206L264.645 36.8254L255.106 36.6667L255.583 24.7619C259.531 24.6296 263.479 24.5238 267.427 24.4444C271.374 24.3386 275.349 24.2064 279.349 24.0476L279.826 50.7143Z" fill="#FCF3F3"/>
<path d="M317.74 37.7778L316.071 55.3968L282.608 58.0159L283.88 1.34921H304.546L301.605 37.7778H317.74Z" fill="#FCF3F3"/>
<path d="M368.73 28.4127C368.73 30.8201 368.452 33.1482 367.895 35.3968C367.339 37.619 366.531 39.709 365.471 41.6667C364.438 43.6243 363.166 45.4233 361.656 47.0635C360.172 48.6773 358.49 50.0661 356.609 51.2302C354.754 52.3942 352.727 53.3069 350.528 53.9683C348.329 54.6032 345.997 54.9206 343.533 54.9206C341.149 54.9206 338.87 54.6164 336.698 54.0079C334.551 53.3995 332.538 52.5529 330.657 51.4683C328.776 50.3571 327.067 49.0344 325.53 47.5C324.02 45.9392 322.721 44.2196 321.635 42.3413C320.575 40.4365 319.741 38.3995 319.131 36.2302C318.549 34.0608 318.257 31.7989 318.257 29.4444C318.257 27.1429 318.535 24.8942 319.092 22.6984C319.648 20.4762 320.443 18.3862 321.476 16.4286C322.536 14.4709 323.808 12.672 325.292 11.0317C326.775 9.39153 328.431 7.97619 330.259 6.78571C332.114 5.59524 334.114 4.66931 336.26 4.00794C338.407 3.34656 340.672 3.01587 343.056 3.01587C346.898 3.01587 350.395 3.61111 353.548 4.80159C356.728 5.99206 359.43 7.69841 361.656 9.92064C363.908 12.1164 365.643 14.7884 366.862 17.9365C368.107 21.0582 368.73 24.5503 368.73 28.4127ZM351.084 29.4444C351.084 28.3069 350.912 27.209 350.568 26.1508C350.25 25.0661 349.773 24.1138 349.137 23.2937C348.501 22.4471 347.706 21.7725 346.752 21.2698C345.825 20.7407 344.752 20.4762 343.533 20.4762C342.288 20.4762 341.175 20.7011 340.195 21.1508C339.215 21.6005 338.367 22.2222 337.651 23.0159C336.963 23.7831 336.433 24.6958 336.062 25.754C335.691 26.7857 335.505 27.8836 335.505 29.0476C335.505 30.1587 335.664 31.2698 335.982 32.381C336.3 33.4921 336.777 34.4974 337.413 35.3968C338.049 36.2963 338.83 37.0238 339.758 37.5794C340.712 38.1349 341.811 38.4127 343.056 38.4127C344.302 38.4127 345.414 38.1746 346.395 37.6984C347.402 37.1958 348.249 36.5344 348.938 35.7143C349.627 34.8677 350.157 33.9021 350.528 32.8175C350.899 31.7328 351.084 30.6085 351.084 29.4444Z" fill="#FCF3F3"/>
<path d="M418.09 20.5556C418.09 22.619 417.905 24.4974 417.534 26.1905C417.189 27.8571 416.633 29.3915 415.864 30.7937C415.096 32.1958 414.103 33.4921 412.884 34.6825C411.665 35.873 410.195 37.0106 408.472 38.0952L417.931 54.9206L400.047 58.4127L393.927 41.5079L388.999 41.6667L388.283 58.1746H371.194C371.326 52.1429 371.446 46.1376 371.552 40.1587C371.684 34.1799 371.83 28.1746 371.989 22.1429C372.042 19.1005 372.095 16.0847 372.148 13.0952C372.201 10.1058 372.307 7.08995 372.466 4.04762C374.32 3.35979 376.149 2.79101 377.95 2.34127C379.752 1.89153 381.554 1.54762 383.355 1.30952C385.183 1.04497 387.025 0.873016 388.879 0.793651C390.76 0.687831 392.681 0.634921 394.642 0.634921C397.662 0.634921 400.577 1.0582 403.385 1.90476C406.22 2.72487 408.724 3.96825 410.897 5.63492C413.069 7.30159 414.805 9.37831 416.103 11.8651C417.428 14.3519 418.09 17.2487 418.09 20.5556ZM400.285 21.8254C400.285 20.7143 400.126 19.6958 399.809 18.7698C399.517 17.8439 399.067 17.0503 398.457 16.3889C397.874 15.7011 397.133 15.172 396.232 14.8016C395.357 14.4048 394.324 14.2063 393.132 14.2063C392.602 14.2063 392.085 14.246 391.582 14.3254C391.078 14.3783 390.588 14.4709 390.111 14.6032L389.475 29.3651H390.429C391.569 29.3651 392.721 29.2196 393.887 28.9286C395.079 28.6376 396.139 28.1878 397.066 27.5794C398.02 26.9709 398.788 26.1905 399.371 25.2381C399.981 24.2857 400.285 23.1481 400.285 21.8254Z" fill="#FCF3F3"/>
<path d="M469 5.07937L450.321 35.5556L450.877 58.0159H430.45L430.927 35.7143L416.381 6.26984L436.65 3.73016L443.008 20.873L449.924 3.73016L469 5.07937Z" fill="#FCF3F3"/>
</svg>
